<svg width="77" height="69" viewBox="0 0 77 69" fill="none" xmlns="http://www.w3.org/2000/svg">
<path d="M59.2839 63.1646C61.4913 63.5218 61.4913 63.5218 61.7356 66.3605C62.1133 66.379 62.5091 66.4135 62.9049 66.4135C66.7513 66.4135 70.5962 66.4135 74.4396 66.4135C74.7426 66.4135 75.0955 66.3306 75.3307 66.4619C75.6224 66.6255 75.9843 66.9665 76.0092 67.243C76.0341 67.5195 75.688 67.9343 75.4076 68.0633C75.0525 68.2223 74.5979 68.1647 74.184 68.1647C50.0592 68.1647 25.9291 68.1647 1.79368 68.1647C1.08803 68.1647 0.0295536 68.4366 0.00919832 67.3237C-0.0156804 66.084 1.09934 66.432 1.81856 66.4274C5.92581 66.4043 10.0331 66.4274 14.2466 66.4274C14.3122 65.5057 14.1086 64.4619 14.5203 63.8467C14.8731 63.3236 15.9384 63.2983 16.782 63.0218V53.1921C16.2731 52.6299 15.6918 52.2589 15.6059 51.7935C15.5539 51.5055 16.2618 51.0769 16.8408 50.4985C16.8408 49.6921 16.877 48.5423 16.8114 47.3971C16.7955 47.1229 16.4834 46.8003 16.2256 46.6206C15.5086 46.116 15.5313 45.5146 16.2369 45.0077C16.3945 44.8913 16.527 44.7434 16.6266 44.573C16.7261 44.4027 16.7906 44.2134 16.8159 44.0169C16.8521 39.1766 16.8521 34.3378 16.8159 29.5005C16.7781 28.9859 16.5718 28.499 16.2301 28.118C15.4747 27.2632 14.5927 26.5281 13.8192 25.6894C13.593 25.459 13.3917 24.929 13.5025 24.7009C13.6076 24.5348 13.746 24.393 13.9085 24.2851C14.071 24.1771 14.254 24.1052 14.4456 24.0742C15.1807 23.982 15.9384 24.0465 16.8408 24.0465V19.4888C16.8408 17.7676 16.8634 17.7469 18.5348 17.7192C18.8311 17.7192 19.1274 17.687 19.6069 17.6616V15.0326C19.6069 13.1155 19.643 13.0809 21.4637 13.021C21.6899 13.021 21.9025 12.9703 22.2598 12.9288C22.2598 10.8067 22.2598 8.70297 22.2598 6.60156C22.2598 4.78586 22.2802 4.75821 24.1144 4.75821C24.4156 4.73745 24.7179 4.73745 25.0191 4.75821C27.1587 5.05545 28.9952 4.45637 30.6304 2.99782C31.128 2.55311 31.4627 2.19365 31.3994 1.49549C31.3134 0.523122 31.7839 0.112977 32.7564 0.126802C36.3389 0.152916 39.9207 0.152916 43.5017 0.126802C44.4946 0.126802 45.0239 0.49317 44.9085 1.54849C44.8384 2.19827 45.1686 2.53006 45.6119 2.96325C47.4801 4.79277 49.7237 4.91029 52.112 4.77665C54.0322 4.66835 54.0956 4.81582 54.0956 6.73981V12.7606C54.2471 12.8782 54.3036 12.9611 54.3624 12.9611C56.9136 13.0141 56.6648 13.1132 56.6716 15.5833C56.6716 16.233 56.6716 16.8851 56.6716 17.551C56.8259 17.6173 56.9866 17.6667 57.1511 17.6985C59.1753 17.8298 59.1753 17.8275 59.1753 19.9497C59.1753 21.2515 59.1753 22.5511 59.1753 24.0258C59.985 24.0258 60.7337 23.9567 61.4597 24.0534C61.8441 24.1064 62.344 24.3691 62.5068 24.6894C62.6244 24.9198 62.2807 25.4014 62.1269 25.7677C62.0892 25.835 62.0345 25.8906 61.9685 25.929C59.5621 27.5558 58.8994 29.807 59.112 32.7102C59.3721 36.3025 59.1731 39.9292 59.1731 43.5399V44.7888L59.4151 44.6482C59.8018 45.0192 60.4622 45.3694 60.4939 45.7727C60.5256 46.1367 59.8697 46.5607 59.5168 46.957L59.2522 46.7888V50.8649C59.4535 50.9202 59.7475 50.9179 59.9307 51.0654C60.1569 51.2681 60.4577 51.5838 60.4532 51.8488C60.4487 52.1138 60.1162 52.3649 59.9081 52.6092C59.7 52.8534 59.2138 53.1322 59.2093 53.3972C59.1663 56.547 59.1912 59.6968 59.2093 62.8443C59.2171 62.9545 59.2423 63.0626 59.2839 63.1646ZM45.0601 66.3674C45.0849 66.0264 45.1189 65.7637 45.1189 65.5034C45.1189 59.1285 45.1189 52.7536 45.1189 46.3787C45.1203 45.992 45.0847 45.6062 45.0126 45.2266C44.6842 43.474 43.7318 41.9069 42.3383 40.8262C40.9448 39.7455 39.2085 39.2275 37.463 39.3716C33.6679 39.7196 30.9041 42.7104 30.8792 46.5469C30.8566 52.8465 30.8792 59.1461 30.8792 65.4412C30.8792 65.7338 30.9357 66.0264 30.9697 66.3628L45.0601 66.3674ZM18.6592 32.5904V44.8648H25.9645C25.9645 41.8118 25.9849 38.8578 25.9645 35.9038C25.9645 34.8785 26.3445 34.4176 27.3668 34.4522C28.5338 34.4914 29.7054 34.4522 30.8724 34.4522C36.7528 34.4522 42.6333 34.4706 48.5137 34.4522C49.5111 34.4522 50.0969 34.7126 50.0539 35.8739C50.0109 37.0352 50.0426 38.1781 50.0426 39.3302V44.8856H57.3976V32.5812L18.6592 32.5904ZM57.427 19.5142H18.58V23.9705H57.427V19.5142ZM23.9651 12.9588H52.2726V6.58082H23.9651V12.9588ZM54.8668 14.8759H21.4366V17.6409H54.8668V14.8759ZM18.5552 63.2153H25.9034V52.7935H18.5552V63.2153ZM57.4858 63.2153C57.4858 59.865 57.4858 56.5816 57.4632 53.3073C57.4632 53.1069 57.1398 52.7428 56.9611 52.7405C54.6859 52.7013 52.4083 52.7152 50.1014 52.7152V63.2222L57.4858 63.2153ZM18.6004 29.1365V30.8001H56.1718C57.6148 30.8001 57.6577 30.7379 57.3321 29.1365H18.6004ZM16.8928 25.8668C17.465 26.8138 17.9196 27.3622 18.9985 27.3599C31.664 27.3185 44.3295 27.3185 56.9951 27.3599C58.0988 27.3599 58.5963 26.8323 59.0012 25.8576L16.8928 25.8668ZM38.8811 36.2748V37.5652C43.072 38.3094 45.7046 40.7726 46.745 44.874H48.2355V36.2748H38.8811ZM37.1192 36.2956H27.7987V44.9201H29.2598C30.3183 40.7104 32.9939 38.2979 37.1305 37.5467L37.1192 36.2956ZM18.5122 50.9156H25.8808V46.6805C23.5513 46.6805 21.3054 46.6805 19.0595 46.7058C18.9337 46.7442 18.8197 46.8147 18.7282 46.9107C18.6367 47.0067 18.5709 47.125 18.5371 47.2542C18.4896 48.4639 18.5122 49.6782 18.5122 50.9156ZM50.0855 50.9041H57.4836C57.4836 49.6483 57.5085 48.4686 57.461 47.2911C57.461 47.0814 57.1466 46.7128 56.9724 46.7105C54.6949 46.6713 52.4151 46.6851 50.0855 46.6851V50.9041ZM44.6869 4.69139C43.8704 3.84575 42.787 3.35497 43.1037 1.96785H33.0504C33.5774 3.49783 32.1864 3.81119 31.4084 4.69139H44.6869ZM27.7784 52.7728V66.3674H29.0336V52.7728H27.7784ZM48.2174 66.3674V52.7059L46.9599 52.7612V66.3559L48.2174 66.3674ZM25.9012 65.137H16.0379L16.1057 66.3536H25.9102L25.9012 65.137ZM59.8697 66.3674V65.1301H50.0403C50.0584 65.5771 50.0765 65.9435 50.0946 66.3674H59.8697ZM27.7761 46.7289V50.987L29.0133 50.9271V46.7289H27.7761ZM46.9599 50.9916L48.2061 50.934V46.6713L46.9599 46.7289V50.9916Z" fill="#414042"/>
</svg>
