<svg width="95" height="62" viewBox="0 0 95 62" fill="none" xmlns="http://www.w3.org/2000/svg">
<path d="M93.9997 58.6195V61.4426H0.993164V58.6861H6.77393V27.009H9.67156V21.226H27.1702V18.8098C27.1702 16.1703 27.2883 13.5237 27.1356 10.8878C26.9738 8.07909 28.2827 6.24263 30.6295 5.01113C31.3748 4.62043 31.6075 4.18292 31.5384 3.40873C31.4766 2.66694 31.5239 1.91616 31.5239 1.10596H34.3997C34.3997 1.89995 34.4452 2.72636 34.387 3.55096C34.3379 4.23333 34.5524 4.60783 35.1923 4.94451C36.9265 5.85734 38.3972 7.09065 38.6953 9.14856C38.8516 10.2288 38.7226 11.3505 38.7226 12.51H56.2466C56.2466 11.9303 56.2939 11.3649 56.2466 10.8104C55.9794 8.12591 57.3046 6.30925 59.5478 5.11196C60.4458 4.63304 60.7349 4.0875 60.6385 3.15307C60.5676 2.5031 60.624 1.83874 60.624 1.11136H63.4998C63.4998 2.02419 63.5307 2.91181 63.4889 3.81203C63.4635 4.33776 63.6707 4.59883 64.127 4.84729C65.8139 5.74751 67.2864 6.8818 67.7409 8.87489C67.8257 9.28534 67.8653 9.70369 67.859 10.1226C67.859 13.4516 67.859 16.7843 67.859 20.1133V21.1936H85.2903V26.946H88.1989V58.6195H93.9997ZM56.2466 58.6195V57.5698C56.2466 53.3136 56.2012 49.0555 56.2648 44.7992C56.3048 42.1724 55.3559 39.9668 53.3072 38.4365C48.608 34.9436 47.1737 34.8122 42.6837 37.7163C40.0696 39.4105 38.6608 41.8069 38.7389 45.0423C38.8389 49.2356 38.7626 53.4342 38.7626 57.631V58.6141L56.2466 58.6195ZM35.8867 49.9773C35.8867 48.8052 35.8504 47.6998 35.8867 46.5979C35.9485 45.0747 35.8467 43.5011 36.2067 42.0446C37.2483 37.8459 40.3223 35.4657 44.1216 33.7409C46.4666 32.6768 48.648 32.7758 50.9839 33.7679C56.4757 36.0995 59.1134 39.9128 59.1134 45.8129V49.9683H64.9123V29.8699H30.0969V49.9755L35.8867 49.9773ZM9.7461 29.8501V58.5997H12.6256V57.5554C12.6256 53.3568 12.6765 49.1563 12.6056 44.9523C12.571 42.9268 13.3454 41.3514 14.9688 40.2711C18.3936 38.0224 18.439 38.0044 21.8657 40.2711C23.5017 41.3514 24.2743 42.925 24.2416 44.9523C24.1725 49.1797 24.2198 53.4144 24.2198 57.6382V58.5997H27.1029V29.8807H24.9033V32.6318H22.0457V29.8699H19.8315V32.6426H16.9429V29.8933H14.7415V32.6516H11.8857V29.8501H9.7461ZM70.7967 58.6249V57.5446C70.7967 53.346 70.8439 49.1455 70.7767 44.9415C70.7458 42.9952 71.5165 41.5332 72.9962 40.3557C75.6939 38.2114 77.4136 38.1952 80.1349 40.3107C81.6547 41.49 82.4509 42.97 82.42 44.9541C82.3509 49.1815 82.3982 53.4162 82.3982 57.64V58.5997H85.274V29.8843H83.1053V32.63H80.2149V29.8735H78.0026V32.639H75.1122V29.8951H72.9126V32.6498H70.055V29.8843H67.9263V58.6249H70.7967ZM30.1205 15.4555V21.136H64.9141V15.4555H30.1205ZM15.5014 58.5997H21.3494C21.3494 53.7781 21.3621 49.0177 21.3367 44.2573C21.3367 43.3337 19.3589 41.5836 18.4281 41.5764C17.3702 41.5764 15.5196 43.4201 15.5014 44.5184C15.4887 46.1064 15.5014 47.6944 15.5014 49.2824V58.5997ZM79.5187 58.6249C79.5187 53.7637 79.5351 49.0015 79.506 44.2393C79.506 43.2833 77.3573 41.472 76.4974 41.5926C75.1722 41.7727 73.6743 43.4777 73.6743 44.8065C73.6743 49.1275 73.6743 53.4432 73.6743 57.7535C73.6743 58.0397 73.7016 58.326 73.7161 58.6249H79.5187ZM12.6256 26.9118H27.1029V24.1193H12.6237L12.6256 26.9118ZM82.3982 24.1211H67.919V26.9118H82.3982V24.1211ZM35.8158 58.6123V52.9103H30.0914V58.6123H35.8158ZM64.9214 58.6591V52.9229H59.1897V58.6267C59.4515 58.6393 59.6587 58.6573 59.8659 58.6573L64.9214 58.6591ZM35.8958 12.5298C35.8958 11.7448 35.8413 11.0552 35.9067 10.3693C36.014 9.27999 35.5177 8.5292 34.6815 7.93866C34.3179 7.67939 33.9416 7.38412 33.5235 7.25088C33.1523 7.12385 32.748 7.12894 32.3801 7.26529C30.0714 8.37617 29.4716 9.86694 30.1987 12.5226L35.8958 12.5298ZM64.9814 12.5298C64.9814 11.878 64.9141 11.2785 64.9941 10.6969C65.194 9.23138 64.4778 8.29155 63.2835 7.62358C62.7672 7.33371 62.2946 6.77197 61.5784 7.18607C60.5622 7.77302 59.386 8.27714 59.1715 9.56446C59.0134 10.5151 59.1406 11.5143 59.1406 12.5298H64.9814ZM30.0787 26.9082H35.8286V24.1211H30.0769L30.0787 26.9082ZM59.177 26.8956H64.9323V24.1031H59.177V26.8956ZM40.9113 26.9316V24.1301H38.8444V26.9298L40.9113 26.9316ZM43.9089 24.1031V26.9244H46.0249V24.1013L43.9089 24.1031ZM49.0152 24.0923V26.9118H51.0985V24.0905L49.0152 24.0923ZM56.1957 26.9388V24.1157H54.0997V26.937L56.1957 26.9388Z" fill="#414042" stroke="white" stroke-width="0.8"/>
<path d="M56.2539 58.6253H38.7699V57.6423C38.7699 53.4454 38.8462 49.2468 38.7463 45.0536C38.6681 41.8127 40.0769 39.4218 42.691 37.7275C47.1811 34.818 48.6153 34.9494 53.3145 38.4477C55.3704 39.9781 56.3121 42.1836 56.2721 44.8105C56.2085 49.0668 56.2539 53.3248 56.2539 57.5811V58.6253Z" stroke="white" stroke-width="0.8"/>
<path d="M35.8966 49.9758H30.0977V29.8702H64.9294V49.9668H59.1305V45.8168C59.1305 39.9167 56.4928 36.0944 51.0011 33.7718C48.6651 32.7798 46.4837 32.6807 44.1387 33.7448C40.3394 35.4696 37.2654 37.8498 36.2238 42.0485C35.8602 43.505 35.9657 45.0786 35.9039 46.6018C35.8602 47.6983 35.8966 48.8038 35.8966 49.9758ZM38.7615 34.1499C38.76 33.8714 38.6756 33.5995 38.5189 33.3683C38.3621 33.1371 38.1399 32.9569 37.8802 32.8502C37.6204 32.7435 37.3347 32.715 37.0587 32.7684C36.7828 32.8218 36.5288 32.9547 36.3288 33.1504C36.1287 33.3461 35.9913 33.5959 35.934 33.8685C35.8766 34.1412 35.9017 34.4245 36.0061 34.6831C36.1106 34.9417 36.2898 35.1639 36.5212 35.3221C36.7527 35.4803 37.0261 35.5673 37.3072 35.5723C37.688 35.5664 38.0517 35.4152 38.3226 35.1502C38.5936 34.8852 38.7508 34.5269 38.7615 34.1499ZM57.6671 35.5705C57.9492 35.5763 58.2267 35.4995 58.4648 35.3495C58.7029 35.1996 58.8909 34.9833 59.0052 34.7278C59.1195 34.4724 59.1549 34.1891 59.1071 33.9137C59.0593 33.6383 58.9304 33.3831 58.7365 33.1801C58.5426 32.9771 58.2925 32.8354 58.0175 32.7728C57.7425 32.7103 57.455 32.7296 57.1911 32.8285C56.9272 32.9273 56.6988 33.1012 56.5344 33.3283C56.37 33.5555 56.2771 33.8256 56.2674 34.1049C56.2672 34.4795 56.4117 34.84 56.6713 35.1125C56.9309 35.385 57.2859 35.5489 57.6635 35.5705H57.6671Z" stroke="white" stroke-width="0.8"/>
<path d="M9.74609 29.8503H11.8821V32.6518H14.7415V29.8936H16.9539V32.6428H19.8315V29.8701H22.0438V32.632H24.9015V29.8809H27.1029V58.5999H24.2216V57.6475C24.2216 53.4182 24.1743 49.1854 24.2434 44.9615C24.2761 42.9378 23.4963 41.3606 21.8675 40.2803C18.4408 38.0154 18.3954 38.0334 14.9706 40.2803C13.3345 41.3606 12.5656 42.9324 12.6074 44.9615C12.6783 49.1584 12.6274 53.3588 12.6274 57.5647V58.5999H9.74791L9.74609 29.8503ZM15.4923 37.0521C15.4965 36.7732 15.4173 36.4993 15.2648 36.2648C15.1123 36.0303 14.8932 35.8457 14.6351 35.7342C14.377 35.6226 14.0913 35.5891 13.814 35.6378C13.5367 35.6865 13.2801 35.8154 13.0765 36.0081C12.8729 36.2008 12.7313 36.4488 12.6696 36.7209C12.6078 36.9931 12.6287 37.2772 12.7295 37.5377C12.8302 37.7981 13.0065 38.0233 13.2361 38.1848C13.4657 38.3464 13.7384 38.4371 14.0199 38.4457C14.3981 38.4452 14.7618 38.301 15.0358 38.0427C15.3098 37.7843 15.4732 37.4317 15.4923 37.0575V37.0521ZM22.7637 35.6118C22.4813 35.6164 22.2067 35.7037 21.9743 35.8627C21.7419 36.0216 21.5623 36.2451 21.4579 36.505C21.3536 36.765 21.3293 37.0496 21.388 37.3232C21.4467 37.5968 21.5859 37.8471 21.788 38.0424C21.99 38.2378 22.246 38.3696 22.5235 38.4212C22.8011 38.4728 23.0879 38.4418 23.3477 38.3323C23.6075 38.2227 23.8288 38.0395 23.9837 37.8056C24.1386 37.5717 24.2201 37.2976 24.218 37.0179C24.2004 36.6446 24.0395 36.2921 23.7681 36.0324C23.4968 35.7726 23.1355 35.6254 22.7582 35.6208L22.7637 35.6118Z" stroke="white" stroke-width="0.8"/>
<path d="M70.7966 58.6251H67.9189V29.8846H70.0476V32.6501H72.9126V29.8954H75.1231V32.6393H78.0025V29.8738H80.2149V32.6303H83.1052V29.8846H85.2739V58.5999H82.3945V57.6583C82.3945 53.4291 82.3472 49.1962 82.4163 44.9723C82.4472 42.9918 81.6509 41.5083 80.1312 40.329C77.4045 38.2171 75.6902 38.2297 72.9925 40.374C71.5128 41.5515 70.7421 43.0135 70.773 44.9597C70.8402 49.1566 70.7929 53.357 70.7929 57.5629L70.7966 58.6251ZM72.2145 38.4601C72.4961 38.4639 72.7726 38.3852 73.0092 38.2338C73.2457 38.0825 73.4319 37.8653 73.5442 37.6095C73.6565 37.3537 73.69 37.0707 73.6404 36.7961C73.5909 36.5215 73.4605 36.2676 73.2657 36.0661C73.0709 35.8647 72.8203 35.7248 72.5454 35.664C72.2705 35.6032 71.9837 35.6242 71.7208 35.7243C71.458 35.8245 71.2309 35.9994 71.068 36.227C70.9052 36.4546 70.814 36.7247 70.8057 37.0036C70.8103 37.3771 70.9587 37.7349 71.2204 38.0039C71.4822 38.2728 71.8378 38.4328 72.2145 38.4511V38.4601ZM82.3945 37.0648C82.3983 36.7859 82.3188 36.512 82.166 36.2777C82.0132 36.0434 81.7938 35.8591 81.5356 35.7478C81.2773 35.6366 80.9916 35.6034 80.7144 35.6525C80.4371 35.7016 80.1807 35.8307 79.9773 36.0237C79.774 36.2166 79.6327 36.4648 79.5713 36.737C79.5099 37.0093 79.5311 37.2934 79.6322 37.5537C79.7334 37.8141 79.9099 38.039 80.1397 38.2003C80.3695 38.3615 80.6423 38.4519 80.9238 38.4601C81.3034 38.4572 81.6673 38.3097 81.9401 38.0483C82.2129 37.7868 82.3736 37.4314 82.389 37.0558L82.3945 37.0648Z" stroke="white" stroke-width="0.8"/>
<path d="M30.1201 15.4559H64.9137V21.1364H30.1201V15.4559Z" stroke="white" stroke-width="0.8"/>
<path d="M15.501 58.6003V49.2811C15.501 47.6931 15.501 46.1052 15.501 44.5172C15.501 43.4189 17.3697 41.568 18.4277 41.5752C19.3548 41.5752 21.3363 43.3325 21.3363 44.2561C21.3617 49.0165 21.349 53.7769 21.349 58.5985L15.501 58.6003Z" stroke="white" stroke-width="0.8"/>
<path d="M79.5191 58.6236H73.7183C73.7038 58.3247 73.6765 58.0384 73.6765 57.7521C73.6765 53.4311 73.6765 49.1154 73.6765 44.8051C73.6765 43.4764 75.1744 41.7732 76.4996 41.5913C77.3595 41.4707 79.5027 43.2819 79.5082 44.238C79.5354 49.0001 79.5191 53.7623 79.5191 58.6236Z" stroke="white" stroke-width="0.8"/>
<path d="M12.625 26.912V24.1195H27.1023V26.912H12.625Z" stroke="white" stroke-width="0.8"/>
<path d="M82.3981 24.1178V26.9121H67.9189V24.1178H82.3981Z" stroke="white" stroke-width="0.8"/>
<path d="M35.8162 58.6127H30.0918V52.9106H35.8162V58.6127Z" stroke="white" stroke-width="0.8"/>
<path d="M64.9143 58.6597H59.8589C59.6516 58.6597 59.4444 58.6417 59.1826 58.6291V52.9235H64.9143V58.6597Z" stroke="white" stroke-width="0.8"/>
<path d="M35.8962 12.5304H30.1936C29.4664 9.87475 30.0754 8.38938 32.375 7.2731C32.7428 7.13675 33.1472 7.13166 33.5184 7.2587C33.9365 7.39193 34.3092 7.6872 34.6764 7.94647C35.5126 8.53701 36.0089 9.2878 35.9016 10.3771C35.8416 11.0558 35.8962 11.7454 35.8962 12.5304Z" stroke="white" stroke-width="0.8"/>
<path d="M64.9809 12.5283H59.1402C59.1402 11.5129 59.013 10.5136 59.1711 9.56299C59.3856 8.27567 60.5618 7.77154 61.5779 7.1846C62.2942 6.77049 62.7668 7.33223 63.2831 7.62211C64.4774 8.29007 65.1936 9.22991 64.9937 10.6955C64.9137 11.277 64.9809 11.8766 64.9809 12.5283Z" stroke="white" stroke-width="0.8"/>
<path d="M30.0781 26.9126V24.1219H35.828V26.9126H30.0781Z" stroke="white" stroke-width="0.8"/>
<path d="M59.1768 26.8943V24.1036H64.9321V26.8943H59.1768Z" stroke="white" stroke-width="0.8"/>
<path d="M40.9185 26.9301H38.8516V24.1304H40.9185V26.9301Z" stroke="white" stroke-width="0.8"/>
<path d="M43.9094 24.1017H46.0254V26.923H43.9094V24.1017Z" stroke="white" stroke-width="0.8"/>
<path d="M49.0155 24.0912H51.0987V26.9125H49.0137L49.0155 24.0912Z" stroke="white" stroke-width="0.8"/>
<path d="M56.1885 26.9375H54.0925V24.1162H56.1885V26.9375Z" stroke="white" stroke-width="0.8"/>
<path d="M38.761 34.15C38.762 34.429 38.6797 34.7021 38.5245 34.935C38.3692 35.1678 38.1479 35.35 37.8884 35.4587C37.6289 35.5673 37.3428 35.5975 37.066 35.5455C36.7892 35.4936 36.5341 35.3617 36.3327 35.1665C36.1314 34.9713 35.9928 34.7216 35.9344 34.4486C35.876 34.1756 35.9003 33.8916 36.0044 33.6323C36.1085 33.373 36.2877 33.15 36.5194 32.9913C36.7511 32.8325 37.025 32.7452 37.3067 32.7402C37.6852 32.7464 38.0468 32.896 38.3173 33.1582C38.5878 33.4204 38.7466 33.7754 38.761 34.15Z" fill="#414042" stroke="white" stroke-width="0.8"/>
<path d="M57.6628 35.5704C57.3806 35.5658 57.1061 35.4786 56.8738 35.3198C56.6415 35.161 56.4619 34.9377 56.3574 34.678C56.253 34.4183 56.2284 34.1338 56.2869 33.8603C56.3453 33.5868 56.4841 33.3365 56.6858 33.141C56.8875 32.9455 57.1431 32.8134 57.4204 32.7614C57.6978 32.7094 57.9844 32.7398 58.2443 32.8488C58.5042 32.9578 58.7258 33.1406 58.8811 33.374C59.0364 33.6074 59.1185 33.8811 59.1171 34.1607C59.1036 34.5356 58.9452 34.891 58.6745 35.1534C58.4038 35.4158 58.0416 35.5651 57.6628 35.5704Z" fill="#414042" stroke="white" stroke-width="0.8"/>
<path d="M15.4922 37.0579C15.4872 37.3367 15.3991 37.6078 15.2391 37.8371C15.0791 38.0665 14.8542 38.244 14.5927 38.3472C14.3313 38.4505 14.0448 38.475 13.7693 38.4175C13.4939 38.3601 13.2417 38.2234 13.0444 38.0245C12.8471 37.8256 12.7135 37.5735 12.6604 37.2997C12.6073 37.0258 12.6371 36.7426 12.7459 36.4855C12.8548 36.2284 13.0379 36.0088 13.2723 35.8544C13.5066 35.7 13.7819 35.6176 14.0634 35.6176C14.4423 35.6313 14.8015 35.7882 15.0672 36.0561C15.3329 36.324 15.485 36.6824 15.4922 37.0579Z" fill="#414042" stroke="white" stroke-width="0.8"/>
<path d="M22.7583 35.6208C23.0403 35.6146 23.3178 35.6911 23.556 35.8407C23.7942 35.9903 23.9825 36.2062 24.0971 36.4615C24.2118 36.7167 24.2477 36.9998 24.2004 37.2752C24.1531 37.5505 24.0246 37.8059 23.8312 38.0092C23.6377 38.2125 23.388 38.3547 23.1132 38.4178C22.8384 38.4809 22.551 38.4621 22.287 38.3639C22.0229 38.2657 21.7941 38.0923 21.6292 37.8657C21.4644 37.639 21.3708 37.3692 21.3604 37.09C21.3584 36.7142 21.5025 36.352 21.7627 36.0785C22.0229 35.8051 22.3794 35.6412 22.7583 35.6208Z" fill="#414042" stroke="white" stroke-width="0.8"/>
<path d="M72.2149 38.4514C71.9336 38.4465 71.66 38.3593 71.4285 38.201C71.197 38.0427 71.0178 37.8202 70.9135 37.5614C70.8091 37.3026 70.7842 37.0191 70.8419 36.7464C70.8995 36.4736 71.0372 36.2238 71.2377 36.0283C71.4381 35.8327 71.6924 35.7002 71.9686 35.6472C72.2448 35.5942 72.5307 35.6231 72.7904 35.7304C73.05 35.8376 73.2719 36.0184 73.4283 36.2501C73.5846 36.4818 73.6684 36.754 73.6692 37.0327C73.6575 37.409 73.4999 37.7664 73.2291 38.0307C72.9582 38.2949 72.595 38.4456 72.2149 38.4514Z" fill="#414042" stroke="white" stroke-width="0.8"/>
<path d="M82.3887 37.056C82.3837 37.3346 82.2957 37.6057 82.1357 37.835C81.9758 38.0643 81.751 38.2418 81.4896 38.3451C81.2283 38.4484 80.9419 38.473 80.6665 38.4157C80.3911 38.3584 80.1389 38.2219 79.9415 38.0232C79.7441 37.8245 79.6104 37.5725 79.5571 37.2988C79.5038 37.0251 79.5333 36.7419 79.6419 36.4848C79.7504 36.2276 79.9333 36.008 80.1674 35.8533C80.4016 35.6987 80.6766 35.616 80.958 35.6156C81.3374 35.6285 81.6973 35.785 81.9635 36.0531C82.2297 36.3211 82.3819 36.6801 82.3887 37.056Z" fill="#414042" stroke="white" stroke-width="0.8"/>
</svg>
